<?xml version="1.0" encoding="UTF-8"?>
<svg xmlns="http://www.w3.org/2000/svg" id="Layer_1" data-name="Layer 1" viewBox="0 0 800 307.6">
  <defs>
    <style>
      .cls-1 {
        fill: #2e3192;
      }

      .cls-1, .cls-2 {
        stroke-width: 0px;
      }

      .cls-2 {
        fill: #228031;
      }
    </style>
  </defs>
  <g>
    <path class="cls-1" d="M271.79,211.54v-17.4h11.38v3.26h-7.95v3.68h7.78v3.26h-7.78v7.2h-3.42Z"></path>
    <path class="cls-1" d="M286.86,211.54v-17.4h3.42v17.4h-3.42Z"></path>
    <path class="cls-1" d="M305.85,211.54l-7.66-11.35v11.35h-3.42v-17.4h3.52l7.45,10.93v-10.93h3.42v17.4h-3.3Z"></path>
    <path class="cls-1" d="M317.35,211.54v-14.14h-4.7v-3.26h12.82v3.26h-4.68v14.14h-3.45Z"></path>
    <path class="cls-1" d="M328.97,211.54v-17.4h11.38v3.26h-7.95v3.68h7.78v3.26h-7.78v3.94h7.95v3.26h-11.38Z"></path>
    <path class="cls-1" d="M343.55,202.85c0-5.35,3.74-9,8.56-9,3.54,0,5.59,2.09,6.72,4.25l-2.94,1.56c-.68-1.41-2.12-2.53-3.78-2.53-2.92,0-5.04,2.43-5.04,5.71s2.12,5.71,5.04,5.71c1.66,0,3.11-1.1,3.78-2.53l2.94,1.54c-1.16,2.17-3.18,4.28-6.72,4.28-4.82,0-8.56-3.65-8.56-9Z"></path>
    <path class="cls-1" d="M373.2,211.54v-7.3h-7.59v7.3h-3.42v-17.4h3.42v6.83h7.59v-6.83h3.45v17.4h-3.45Z"></path>
    <path class="cls-1" d="M387.49,209.09l1.86-2.82c1.13,1.28,2.89,2.35,5.11,2.35,1.88,0,2.8-.94,2.8-1.93,0-3.08-9.26-.97-9.26-7.51,0-2.9,2.31-5.29,6.1-5.29,2.55,0,4.68.83,6.27,2.43l-1.9,2.71c-1.3-1.3-3.04-1.9-4.68-1.9-1.47,0-2.29.7-2.29,1.75,0,2.76,9.23.91,9.23,7.41,0,3.18-2.1,5.58-6.44,5.58-3.09,0-5.3-1.12-6.8-2.76Z"></path>
    <path class="cls-1" d="M408.58,211.54v-7.12l-6.19-10.28h3.9l4,6.99,3.95-6.99h3.9l-6.15,10.28v7.12h-3.42Z"></path>
    <path class="cls-1" d="M419.38,209.09l1.86-2.82c1.13,1.28,2.89,2.35,5.11,2.35,1.88,0,2.8-.94,2.8-1.93,0-3.08-9.26-.97-9.26-7.51,0-2.9,2.31-5.29,6.1-5.29,2.55,0,4.67.83,6.27,2.43l-1.9,2.71c-1.3-1.3-3.04-1.9-4.68-1.9-1.47,0-2.29.7-2.29,1.75,0,2.76,9.23.91,9.23,7.41,0,3.18-2.1,5.58-6.43,5.58-3.09,0-5.3-1.12-6.8-2.76Z"></path>
    <path class="cls-1" d="M439.63,211.54v-14.14h-4.7v-3.26h12.82v3.26h-4.68v14.14h-3.45Z"></path>
    <path class="cls-1" d="M451.25,211.54v-17.4h11.38v3.26h-7.95v3.68h7.78v3.26h-7.78v3.94h7.95v3.26h-11.38Z"></path>
    <path class="cls-1" d="M480.58,211.54v-12.18l-4.53,12.18h-1.49l-4.53-12.18v12.18h-3.42v-17.4h4.8l3.9,10.51,3.9-10.51h4.82v17.4h-3.45Z"></path>
    <path class="cls-1" d="M487.43,209.09l1.86-2.82c1.13,1.28,2.89,2.35,5.11,2.35,1.88,0,2.8-.94,2.8-1.93,0-3.08-9.26-.97-9.26-7.51,0-2.9,2.31-5.29,6.1-5.29,2.55,0,4.68.83,6.27,2.43l-1.9,2.71c-1.3-1.3-3.04-1.9-4.68-1.9-1.47,0-2.29.7-2.29,1.75,0,2.76,9.23.91,9.23,7.41,0,3.18-2.1,5.58-6.44,5.58-3.09,0-5.3-1.12-6.8-2.76Z"></path>
    <path class="cls-1" d="M514.5,205.19c-1.59,0-2.87-1.38-2.87-3.08s1.28-3.11,2.87-3.11,2.87,1.38,2.87,3.11-1.28,3.08-2.87,3.08Z"></path>
    <path class="cls-1" d="M529.15,211.54v-17.4h11.38v3.26h-7.95v3.68h7.78v3.26h-7.78v7.2h-3.42Z"></path>
    <path class="cls-1" d="M544.22,211.54v-17.4h3.42v17.4h-3.42Z"></path>
    <path class="cls-1" d="M563.21,211.54l-7.67-11.35v11.35h-3.42v-17.4h3.52l7.45,10.93v-10.93h3.42v17.4h-3.3Z"></path>
    <path class="cls-1" d="M582.09,211.54l-.99-2.95h-6.89l-1.01,2.95h-3.9l6.22-17.4h4.29l6.2,17.4h-3.9ZM577.65,197.85l-2.51,7.49h5.01l-2.51-7.49Z"></path>
    <path class="cls-1" d="M599.88,211.54l-7.66-11.35v11.35h-3.42v-17.4h3.52l7.45,10.93v-10.93h3.42v17.4h-3.3Z"></path>
    <path class="cls-1" d="M606.89,202.85c0-5.35,3.74-9,8.56-9,3.54,0,5.59,2.09,6.72,4.25l-2.94,1.56c-.68-1.41-2.12-2.53-3.78-2.53-2.92,0-5.04,2.43-5.04,5.71s2.12,5.71,5.04,5.71c1.66,0,3.11-1.1,3.78-2.53l2.94,1.54c-1.16,2.17-3.18,4.28-6.72,4.28-4.82,0-8.56-3.65-8.56-9Z"></path>
    <path class="cls-1" d="M625.52,211.54v-17.4h3.42v17.4h-3.42Z"></path>
    <path class="cls-1" d="M644.52,211.54l-.99-2.95h-6.89l-1.01,2.95h-3.9l6.22-17.4h4.29l6.2,17.4h-3.9ZM640.08,197.85l-2.51,7.49h5.01l-2.51-7.49Z"></path>
    <path class="cls-1" d="M651.22,211.54v-17.4h3.42v14.14h6.8v3.26h-10.22Z"></path>
    <path class="cls-1" d="M671.52,209.09l1.86-2.82c1.13,1.28,2.89,2.35,5.11,2.35,1.88,0,2.8-.94,2.8-1.93,0-3.08-9.26-.97-9.26-7.51,0-2.9,2.31-5.29,6.1-5.29,2.55,0,4.68.83,6.27,2.43l-1.9,2.71c-1.3-1.3-3.04-1.9-4.67-1.9-1.47,0-2.29.7-2.29,1.75,0,2.76,9.23.91,9.23,7.41,0,3.18-2.1,5.58-6.44,5.58-3.09,0-5.3-1.12-6.8-2.76Z"></path>
    <path class="cls-1" d="M688.36,211.54v-17.4h11.38v3.26h-7.96v3.68h7.79v3.26h-7.79v3.94h7.96v3.26h-11.38Z"></path>
    <path class="cls-1" d="M712.8,211.54l-3.16-6.18h-2.51v6.18h-3.42v-17.4h7.52c3.35,0,5.4,2.37,5.4,5.61s-1.78,4.72-3.52,5.17l3.62,6.63h-3.93ZM713.14,199.75c0-1.46-1.04-2.35-2.41-2.35h-3.59v4.7h3.59c1.37,0,2.41-.89,2.41-2.35Z"></path>
    <path class="cls-1" d="M724.78,211.54l-6.22-17.4h3.9l4.46,13.38,4.44-13.38h3.9l-6.2,17.4h-4.29Z"></path>
    <path class="cls-1" d="M738.07,211.54v-17.4h3.42v17.4h-3.42Z"></path>
    <path class="cls-1" d="M745.2,202.85c0-5.35,3.74-9,8.56-9,3.54,0,5.59,2.09,6.72,4.25l-2.94,1.56c-.68-1.41-2.12-2.53-3.78-2.53-2.92,0-5.04,2.43-5.04,5.71s2.12,5.71,5.04,5.71c1.66,0,3.11-1.1,3.78-2.53l2.94,1.54c-1.16,2.17-3.18,4.28-6.72,4.28-4.82,0-8.56-3.65-8.56-9Z"></path>
    <path class="cls-1" d="M763.83,211.54v-17.4h11.38v3.26h-7.96v3.68h7.79v3.26h-7.79v3.94h7.96v3.26h-11.38Z"></path>
    <path class="cls-1" d="M778.1,209.09l1.86-2.82c1.13,1.28,2.89,2.35,5.11,2.35,1.88,0,2.8-.94,2.8-1.93,0-3.08-9.26-.97-9.26-7.51,0-2.9,2.31-5.29,6.1-5.29,2.55,0,4.68.83,6.27,2.43l-1.9,2.71c-1.3-1.3-3.04-1.9-4.67-1.9-1.47,0-2.29.7-2.29,1.75,0,2.76,9.23.91,9.23,7.41,0,3.18-2.1,5.58-6.44,5.58-3.09,0-5.3-1.12-6.8-2.76Z"></path>
  </g>
  <g>
    <path class="cls-1" d="M223.53,197.96c-14.66,23.07-40.44,38.4-69.73,38.4-45.53,0-82.56-37.04-82.56-82.56s37.04-82.56,82.56-82.56c29.33,0,55.13,15.37,69.78,38.48l16.48-10.43c-18.11-28.56-50.01-47.56-86.26-47.56-56.28,0-102.07,45.79-102.07,102.07s45.79,102.07,102.07,102.07c36.22,0,68.08-18.96,86.21-47.48l-16.48-10.43Z"></path>
    <path class="cls-1" d="M263,222.95c-22.95,36.12-63.32,60.15-109.2,60.15-71.29,0-129.29-58-129.29-129.29S82.51,24.51,153.8,24.51c45.91,0,86.31,24.06,109.25,60.23l16.56-10.48c-5.83-9.18-12.72-17.79-20.59-25.67C230.91,20.48,193.55,5,153.8,5s-77.11,15.48-105.22,43.58C20.48,76.69,5,114.05,5,153.8s15.48,77.11,43.58,105.22c28.1,28.1,65.47,43.58,105.22,43.58s77.11-15.48,105.22-43.58c7.86-7.86,14.72-16.44,20.54-25.59l-16.56-10.48Z"></path>
    <g>
      <path class="cls-2" d="M119.78,144.39c5.19-19.06,24.85-30.3,43.91-25.11,6.08,1.66,11.36,4.79,15.57,8.9l24.17-.04c-6.9-13.21-19.06-23.62-34.57-27.85-29.54-8.05-60.01,9.38-68.06,38.92-.86,3.18-1.42,6.36-1.71,9.53l19.8-.03c.21-1.44.5-2.89.89-4.33Z"></path>
      <path class="cls-2" d="M239.23,146.28l-30,.04h0l-19.96.03c1.15,5.4,1.08,11.14-.47,16.83-5.19,19.06-24.85,30.3-43.91,25.11-11.9-3.24-20.75-12.13-24.45-22.99l31.41-11.41-33.32.05-19.67.03c.06,24.33,16.25,46.61,40.86,53.31,29.54,8.05,60.01-9.38,68.06-38.92,1.02-3.73,1.62-7.47,1.85-11.18l29.6-10.89Z"></path>
    </g>
  </g>
  <g>
    <path class="cls-1" d="M363.73,158.75c-5.01-5.12-8.06-8.1-10.81-10.12l-1.72-1.27,2.1-.42c11.89-2.38,19.57-11.68,19.57-23.7,0-24.2-27.28-26.82-39.02-26.82h-49.49l-14.21,18.32h65.68c9.02,0,14.19,3.65,14.19,10.01,0,5.69-5.84,9.66-14.19,9.66h-64.04v23.49l19.52,12.36v-18.57h38.33l17.31,20.56h29.54l-12.77-13.49Z"></path>
    <path class="cls-1" d="M422.03,172.24l13.15-18.09h19.03c4.72,0,10.08,0,13.76.23l2.05.13-1.23-1.64c-1.87-2.49-4.63-6.52-7.08-10.07l-.8-1.16-14.7-21.69-36.98,52.3h-26.14l48.78-68.79c4.02-5.59,8.86-8.31,14.79-8.31s10.7,2.72,14.56,8.3l47.53,68.8h-86.72Z"></path>
    <path class="cls-1" d="M551.57,172.24c-26.15,0-45.87-16.62-45.87-38.67s18.86-37.16,45.87-37.16h52.57l-14,18.32h-38.57c-13.74,0-23.72,8.36-23.72,19.88s9.75,19.53,23.72,19.53h52.55l-13.99,18.09h-38.57Z"></path>
    <polygon class="cls-1" points="615.37 172.24 615.37 96.42 637.52 96.42 637.52 154.15 696.71 154.15 682.62 172.24 615.37 172.24"></polygon>
    <polygon class="cls-1" points="707.61 172.24 707.61 96.42 794.77 96.42 780.66 114.74 729.88 114.74 729.88 125.93 790.45 125.93 778.11 141.69 729.88 141.69 729.88 154.15 795 154.15 781.01 172.24 707.61 172.24"></polygon>
  </g>
  <g>
    <path class="cls-1" d="M393.31,246.55v-12.87h6.02c2.8,0,4.32,1.89,4.32,4.15s-1.54,4.15-4.32,4.15h-3.28v4.57h-2.74ZM400.86,237.82c0-1.08-.81-1.74-1.89-1.74h-2.91v3.47h2.91c1.08,0,1.89-.68,1.89-1.74Z"></path>
    <path class="cls-1" d="M420.34,246.55l-2.53-4.57h-2.01v4.57h-2.74v-12.87h6.02c2.68,0,4.32,1.76,4.32,4.15s-1.43,3.49-2.82,3.82l2.89,4.9h-3.15ZM420.61,237.82c0-1.08-.83-1.74-1.93-1.74h-2.88v3.47h2.88c1.1,0,1.93-.66,1.93-1.74Z"></path>
    <path class="cls-1" d="M432.56,240.12c0-3.88,2.84-6.66,6.71-6.66s6.73,2.78,6.73,6.66-2.84,6.66-6.73,6.66-6.71-2.78-6.71-6.66ZM443.19,240.12c0-2.41-1.54-4.23-3.92-4.23s-3.9,1.81-3.9,4.23,1.52,4.22,3.9,4.22,3.92-1.83,3.92-4.22Z"></path>
    <path class="cls-1" d="M454.78,244.73l1.49-2.08c.91.95,2.31,1.74,4.09,1.74,1.51,0,2.24-.69,2.24-1.43,0-2.28-7.41-.71-7.41-5.56,0-2.14,1.85-3.92,4.88-3.92,2.05,0,3.74.62,5.02,1.79l-1.52,2.01c-1.04-.96-2.43-1.41-3.74-1.41-1.18,0-1.83.52-1.83,1.29,0,2.05,7.39.68,7.39,5.48,0,2.35-1.68,4.13-5.15,4.13-2.47,0-4.24-.83-5.44-2.05Z"></path>
    <path class="cls-1" d="M474.94,246.55v-12.87h6.02c2.8,0,4.32,1.89,4.32,4.15s-1.54,4.15-4.32,4.15h-3.28v4.57h-2.74ZM482.48,237.82c0-1.08-.81-1.74-1.89-1.74h-2.91v3.47h2.91c1.08,0,1.89-.68,1.89-1.74Z"></path>
    <path class="cls-1" d="M494.69,246.55v-12.87h9.11v2.41h-6.37v2.72h6.23v2.41h-6.23v2.91h6.37v2.41h-9.11Z"></path>
    <path class="cls-1" d="M520.92,246.55l-2.53-4.57h-2.01v4.57h-2.74v-12.87h6.02c2.68,0,4.32,1.76,4.32,4.15s-1.43,3.49-2.82,3.82l2.89,4.9h-3.15ZM521.19,237.82c0-1.08-.83-1.74-1.93-1.74h-2.87v3.47h2.87c1.1,0,1.93-.66,1.93-1.74Z"></path>
    <path class="cls-1" d="M556.25,246.55l-2.26-8.84-2.24,8.84h-2.91l-3.69-12.87h3.07l2.26,9.3,2.45-9.3h2.14l2.43,9.3,2.24-9.3h3.09l-3.67,12.87h-2.91Z"></path>
    <path class="cls-1" d="M571.83,246.55v-12.87h2.74v12.87h-2.74Z"></path>
    <path class="cls-1" d="M587.8,246.55v-10.46h-3.76v-2.41h10.27v2.41h-3.74v10.46h-2.76Z"></path>
    <path class="cls-1" d="M612.59,246.55v-5.4h-6.08v5.4h-2.74v-12.87h2.74v5.06h6.08v-5.06h2.76v12.87h-2.76Z"></path>
    <path class="cls-1" d="M638.24,241.41v-7.74h2.78v7.64c0,1.79,1.04,3.03,3.03,3.03s3.01-1.23,3.01-3.03v-7.64h2.8v7.72c0,3.2-1.89,5.38-5.81,5.38s-5.81-2.2-5.81-5.36Z"></path>
    <path class="cls-1" d="M659.22,244.73l1.49-2.08c.91.95,2.32,1.74,4.09,1.74,1.51,0,2.24-.69,2.24-1.43,0-2.28-7.41-.71-7.41-5.56,0-2.14,1.85-3.92,4.88-3.92,2.05,0,3.74.62,5.02,1.79l-1.52,2.01c-1.04-.96-2.43-1.41-3.74-1.41-1.18,0-1.83.52-1.83,1.29,0,2.05,7.39.68,7.39,5.48,0,2.35-1.68,4.13-5.15,4.13-2.47,0-4.24-.83-5.44-2.05Z"></path>
  </g>
</svg>
